<svg xmlns="http://www.w3.org/2000/svg" viewBox="0 0 74.77 74.77">
    <defs>
        <style>.cls-1{fill:#161741;}</style>
    </defs>
    <g id="Layer_2" data-name="Layer 2">
        <g id="Layer_1-2" data-name="Layer 1">
            <path class="cls-1" d="M56,0H18.79A18.81,18.81,0,0,0,0,18.79V56A18.82,18.82,0,0,0,18.79,74.77H56A18.83,18.83,0,0,0,74.77,56V18.79A18.82,18.82,0,0,0,56,0ZM70.49,56A14.52,14.52,0,0,1,56,70.49H18.79A14.52,14.52,0,0,1,4.27,56V18.79A14.54,14.54,0,0,1,18.79,4.27H56A14.54,14.54,0,0,1,70.49,18.79Z"/>
            <path class="cls-1" d="M42.37,15.92h6.56L29.06,35.36a9.41,9.41,0,0,1-6.21-8.85V25.33a9.42,9.42,0,0,1,9.4-9.41h5V11.81h-5A13.53,13.53,0,0,0,18.73,25.33v1.18a13.56,13.56,0,0,0,7.18,11.94l-3.47,3.4A12.32,12.32,0,0,0,31.05,63H42.51a13.53,13.53,0,0,0,0-27H34.38L51.92,18.76V25H56V11.8H42.37ZM42.51,40a9.41,9.41,0,0,1,0,18.81H31.05a8.2,8.2,0,0,1-5.73-14.06l5-4.89a14.21,14.21,0,0,0,1.95.14Z"/>
        </g>
    </g>
</svg>