<svg xmlns="http://www.w3.org/2000/svg" version="1.1" xmlns:xlink="http://www.w3.org/1999/xlink" xmlns:svgjs="http://svgjs.dev/svgjs" viewBox="0 0 1422 800"><defs><linearGradient x1="50%" y1="0%" x2="50%" y2="100%" id="ccchaos-grad"><stop stop-color="hsl(206, 75%, 49%)" stop-opacity="1" offset="0%"></stop><stop stop-color="hsl(331, 90%, 56%)" stop-opacity="1" offset="100%"></stop></linearGradient></defs><g stroke-width="2" stroke="url(#ccchaos-grad)" fill="none" stroke-linecap="round"><path d="M308.05 -12.57Q320.7 -11.25 333.34 -9.03 345.99 -6.15 358.63 -2.93 371.27 0.27 383.92 3.13 396.56 5.32 409.21 6.6 421.85 6.84 434.49 6.01 447.14 4.19 459.78 1.6 472.43 -1.49 485.07 -4.75 497.72 -7.82 510.36 -10.37 523 -12.11 535.65 -12.86 548.29 -12.54 560.94 -11.18 573.58 -8.92 586.23 -6.03 598.87 -2.8 611.51 0.4 624.16 3.23 636.8 5.39 649.45 6.63 662.09 6.83 674.74 5.95 687.38 4.1 700.02 1.48 712.67 -1.62 725.31 -4.89 737.96 -7.94 750.6 -10.46 763.24 -12.16 775.89 -12.87 788.53 -12.5 801.18 -11.1 813.82 -8.81 826.47 -5.9 839.11 -2.66 851.75 0.52 864.4 3.34 877.04 5.46 889.69 6.66 902.33 6.81 914.98 5.89 927.62 4.01 940.26 1.36 952.91 -1.76 965.55 -5.02 978.2 -8.06 990.84 -10.55 1003.49 -12.21 1016.13 -12.87 1028.77 -12.46 1041.42 -11.02 1054.06 -8.7 1066.71 -5.77 1079.35 -2.53 1091.99 0.65 1104.1 10.99 1090.72 31.53 1079.87 44.53 1071.92 57.53 1067.55 70.54 1067.14 83.54 1070.72 96.54 1077.99 109.54 1088.32 122.54 1100.84 135.54 1114.48 148.54 1128.08 161.55 1140.48 174.55 1150.62 187.55 1157.64 200.55 1160.95 213.55 1160.26 226.55 1155.62 239.55 1147.45 252.56 1136.42 265.56 1123.48 278.56 1109.74 291.56 1096.36 304.56 1084.48 317.56 1075.11 330.56 1069.06 343.57 1066.83 356.57 1068.62 369.57 1074.27 382.57 1083.31 395.57 1094.96 408.57 1108.23 421.57 1122 434.57 1135.08 447.58 1146.36 460.58 1154.89 473.58 1159.94 486.58 1161.07 499.58 1158.19 512.58 1151.55 525.58 1141.72 538.59 1129.52 551.59 1115.99 564.59 1102.3 577.59 1089.61 590.59 1078.99 603.59 1071.35 616.59 1067.34 629.6 1067.31 642.6 1071.25 655.6 1078.84 668.6 1089.42 681.6 1102.09 694.6 1115.77 707.6 1129.31 720.61 1141.54 733.61 1151.42 746.61 1158.12 759.61 1161.06 772.61 1159.99 785.61 1155 798.61 1146.52 811.61 1135.28 824.62 1122.21 837.62 1109.49 829.14 1096.77 817.82 1084.05 804.89 1071.33 791.75 1058.61 779.83 1045.89 770.44 1033.18 764.58 1020.46 762.91 1007.74 765.6 995.02 772.36 982.3 782.46 969.58 794.79 956.86 808.01 944.14 820.69 931.42 831.44 918.7 839.09 905.98 842.82 893.26 842.21 880.54 837.34 867.82 828.72 855.1 817.31 842.38 804.34 829.66 791.22 816.94 779.39 804.22 770.12 791.5 764.43 778.78 762.94 766.06 765.81 753.34 772.72 740.62 782.93 727.9 795.33 715.18 808.55 702.46 821.18 689.74 831.82 677.02 839.33 664.3 842.88 651.58 842.09 638.86 837.05 626.14 828.3 613.42 816.8 600.7 803.79 587.98 790.7 575.26 778.94 562.54 769.81 549.82 764.28 537.1 762.97 524.38 766.02 511.66 773.08 498.94 783.41 486.22 795.87 473.5 809.1 460.78 821.67 448.06 832.2 435.34 839.56 422.62 842.94 409.9 841.97 397.18 836.76 384.46 827.87 371.74 816.28 359.02 803.24 346.3 790.18 333.58 778.51 320.86 769.5 308.14 764.14 308.37 752.01 308.57 739.87 308.71 727.73 308.8 715.6 308.82 703.46 308.77 691.32 308.65 679.19 308.48 667.05 308.26 654.92 308.03 642.78 307.79 630.64 307.56 618.51 307.38 606.37 307.25 594.23 307.18 582.1 307.18 569.96 307.25 557.82 307.38 545.69 307.57 533.55 307.79 521.42 308.03 509.28 308.27 497.14 308.48 485.01 308.65 472.87 308.77 460.73 308.82 448.6 308.8 436.46 308.71 424.33 308.56 412.19 308.36 400.05 308.14 387.92 307.89 375.78 307.66 363.64 307.46 351.51 307.3 339.37 307.2 327.23 307.17 315.1 307.21 302.96 307.31 290.83 307.48 278.69 307.69 266.55 307.92 254.42 308.16 242.28 308.39 230.14 308.58 218.01 308.73 205.87 308.81 193.74 308.82 181.6 308.76 169.46 308.64 157.33 308.46 145.19 308.24 133.05 308 120.92 307.76 108.78 307.54 96.64 307.36 84.51 307.24 72.37 307.17 60.24 307.18 48.1 307.26 35.96 307.4 23.83 307.59 11.69 307.81 -0.44 308.05 -12.57" stroke-dasharray="6 6" transform="rotate(0, 711, 400)" opacity="0.38"></path><path d="M323 4.22Q334.91 6.64 346.82 9.66 358.73 12.96 370.64 16.21 382.55 19.09 394.46 21.31 406.37 22.63 418.28 22.94 430.19 22.2 442.1 20.47 454.01 17.95 465.92 14.87 477.83 11.56 489.74 8.34 501.65 5.54 513.56 3.44 525.47 2.25 537.38 2.09 549.29 2.98 561.2 4.83 573.11 7.45 585.02 10.58 596.93 13.9 608.84 17.08 620.75 19.8 632.66 21.78 644.57 22.83 656.48 22.83 668.39 21.8 680.3 19.83 692.21 17.12 704.12 13.95 716.03 10.62 727.94 7.49 739.85 4.86 751.76 3 763.67 2.1 775.57 2.24 787.48 3.41 799.39 5.5 811.3 8.3 823.21 11.51 835.12 14.83 847.03 17.91 858.94 20.44 870.85 22.18 882.76 22.94 894.67 22.65 906.58 21.33 918.49 19.13 930.4 16.26 942.31 13.01 954.22 9.7 966.13 6.68 978.04 4.25 989.95 2.64 1001.86 2.03 1013.77 2.47 1025.68 3.92 1037.59 6.23 1049.5 9.18 1061.41 12.46 1073.38 23.4 1063.61 43.45 1056.53 55.83 1052.76 68.21 1052.59 80.58 1056.04 92.96 1062.84 105.34 1072.44 117.72 1084.1 130.1 1096.89 142.47 1109.8 154.85 1121.83 167.23 1132.02 179.61 1139.57 191.99 1143.88 204.37 1144.61 216.74 1141.72 229.12 1135.41 241.5 1126.2 253.88 1114.81 266.26 1102.13 278.64 1089.16 291.01 1076.93 303.39 1066.4 315.77 1058.4 328.15 1053.56 340.53 1052.25 352.9 1054.59 365.28 1060.39 377.66 1069.19 390.04 1080.3 402.42 1092.84 414.8 1105.83 427.17 1118.24 439.55 1129.1 451.93 1137.54 464.31 1142.91 476.69 1144.78 489.06 1143 501.44 1137.72 513.82 1129.34 526.2 1118.54 538.58 1106.16 550.96 1093.17 563.33 1080.6 575.71 1069.45 588.09 1060.58 600.47 1054.7 612.85 1052.27 625.23 1053.48 637.6 1058.24 649.98 1066.17 662.36 1076.64 674.74 1088.84 687.12 1101.8 699.49 1114.5 711.87 1125.94 724.25 1135.21 736.63 1141.6 749.01 1144.58 761.39 1143.94 773.76 1139.72 786.14 1132.25 798.52 1122.12 810.9 1109.65 799.74 1097.19 787.35 1084.72 774.97 1072.26 763.85 1059.79 755.12 1047.33 749.64 1034.86 747.98 1022.4 750.29 1009.93 756.35 997.47 765.55 985 776.96 972.54 789.43 960.07 801.7 947.61 812.54 935.14 820.86 922.68 825.82 910.21 826.93 897.75 824.06 885.29 817.51 872.82 807.93 860.36 796.3 847.89 783.79 835.43 771.64 822.96 761.1 810.5 753.21 798.03 748.77 785.57 748.23 773.1 751.65 760.64 758.67 748.17 768.6 735.71 780.43 723.24 792.97 710.78 804.96 698.31 815.19 685.85 822.64 673.38 826.54 660.92 826.51 648.46 822.55 635.99 815.07 623.53 804.8 611.06 792.8 598.6 780.26 586.13 768.45 573.67 758.55 561.2 751.57 548.74 748.21 536.27 748.8 523.81 753.29 511.34 761.23 498.88 771.81 486.41 783.96 473.95 796.48 461.48 808.09 449.02 817.62 436.55 824.12 424.09 826.94 411.63 825.78 399.16 820.77 386.7 812.4 374.23 801.53 361.77 789.25 349.3 776.79 336.84 765.4 324.37 756.25 324.75 744.5 325.03 732.74 325.18 720.99 325.21 709.24 325.1 697.49 324.86 685.74 324.51 673.99 324.09 662.24 323.62 650.49 323.14 638.74 322.68 626.99 322.29 615.24 322 603.49 321.82 591.74 321.78 579.99 321.87 568.24 322.09 556.49 322.42 544.74 322.83 532.99 323.3 521.24 323.78 509.49 324.24 497.74 324.64 485.99 324.95 474.24 325.15 462.49 325.21 450.74 325.14 438.98 324.94 427.23 324.63 415.48 324.23 403.73 323.77 391.98 323.29 380.23 322.82 368.48 322.41 356.73 322.08 344.98 321.86 333.23 321.78 321.48 321.83 309.73 322.01 297.98 322.3 286.23 322.69 274.48 323.15 262.73 323.63 250.98 324.1 239.23 324.52 227.48 324.87 215.73 325.1 203.98 325.21 192.23 325.18 180.48 325.02 168.73 324.74 156.97 324.36 145.22 323.91 133.47 323.44 121.72 322.96 109.97 322.53 98.22 322.17 86.47 321.92 74.72 321.79 62.97 321.8 51.22 321.94 39.47 322.2 27.72 322.56 15.97 323 4.22" stroke-dasharray="6 3" transform="rotate(4.24, 711, 400)" opacity="0.38"></path><path d="M337.41 22.66Q348.63 25.82 359.85 29.19 371.07 32.44 382.29 35.28 393.51 37.44 404.73 38.73 415.95 39.02 427.17 38.29 438.39 36.6 449.61 34.11 460.83 31.05 472.05 27.71 483.27 24.4 494.49 21.42 505.71 19.05 516.93 17.51 528.15 16.95 539.37 17.41 550.59 18.85 561.81 21.15 573.03 24.08 584.25 27.37 595.47 30.72 606.69 33.82 617.91 36.38 629.13 38.16 640.35 38.99 651.57 38.81 662.79 37.62 674.01 35.53 685.23 32.75 696.45 29.53 707.67 26.16 718.89 22.96 730.11 20.23 741.33 18.23 752.55 17.12 763.77 17.03 774.99 17.96 786.21 19.82 797.43 22.43 808.65 25.57 819.87 28.93 831.09 32.2 842.31 35.08 853.53 37.31 864.75 38.67 875.97 39.03 887.19 38.38 898.41 36.76 909.63 34.32 920.85 31.3 932.07 27.97 943.29 24.64 954.5 21.63 965.72 19.2 976.94 17.6 988.16 16.95 999.38 17.34 1010.6 18.71 1021.82 20.94 1033.04 23.83 1045.55 34.65 1040.83 53.91 1037.87 65.64 1038.2 77.36 1041.78 89.08 1048.35 100.8 1057.44 112.53 1068.39 124.25 1080.4 135.97 1092.59 147.69 1104.09 159.42 1114.06 171.14 1121.77 182.86 1126.66 194.58 1128.38 206.31 1126.81 218.03 1122.05 229.75 1114.45 241.47 1104.57 253.2 1093.12 264.92 1080.94 276.64 1068.9 288.36 1057.89 300.09 1048.7 311.81 1042.01 323.53 1038.29 335.25 1037.82 346.98 1040.63 358.7 1046.51 370.42 1055.05 382.14 1065.62 393.87 1077.45 405.59 1089.68 417.31 1101.43 429.03 1111.84 440.76 1120.15 452.48 1125.76 464.2 1128.27 475.92 1127.49 487.65 1123.47 499.37 1116.52 511.09 1107.13 522.81 1095.98 534.54 1083.9 546.26 1071.74 557.98 1060.41 569.7 1050.71 581.43 1043.36 593.15 1038.89 604.87 1037.63 616.59 1039.66 628.32 1044.83 640.04 1052.78 651.76 1062.93 663.48 1074.53 675.21 1086.75 686.93 1098.69 698.65 1109.49 710.38 1118.37 722.1 1124.68 733.82 1127.96 745.54 1127.98 757.27 1115.51 768.93 1094.15 757.32 1082 747.14 1069.85 739.26 1057.7 734.42 1045.56 733.07 1033.41 735.34 1021.26 741.01 1009.12 749.56 996.97 760.19 984.82 771.91 972.68 783.65 960.53 794.3 948.38 802.88 936.23 808.59 924.09 810.91 911.94 809.61 899.79 804.82 887.65 796.98 875.5 786.82 863.35 775.28 851.21 763.44 839.06 752.39 826.91 743.17 814.76 736.62 802.62 733.35 790.47 733.68 778.32 737.56 766.18 744.64 754.03 754.26 741.88 765.52 729.74 777.39 717.59 788.76 705.44 798.57 693.3 805.91 681.15 810.1 669 810.76 656.85 807.81 644.71 801.54 632.56 792.53 620.41 781.6 608.27 769.79 596.12 758.18 583.97 747.85 571.83 739.77 559.68 734.68 547.53 733.05 535.38 735.04 523.24 740.46 511.09 748.81 498.94 759.31 486.8 770.99 474.65 782.77 462.5 793.54 450.36 802.31 438.21 808.27 426.06 810.86 413.91 809.84 401.77 805.3 389.62 797.68 377.47 787.66 365.33 776.2 353.18 764.34 341.03 753.19 341.39 741.78 341.58 730.37 341.58 718.95 341.39 707.54 341.03 696.12 340.52 684.71 339.9 673.29 339.21 661.88 338.51 650.46 337.84 639.05 337.26 627.63 336.8 616.22 336.5 604.8 336.39 593.39 336.46 581.98 336.72 570.56 337.14 559.15 337.7 547.73 338.35 536.32 339.05 524.9 339.74 513.49 340.38 502.07 340.92 490.66 341.32 479.24 341.55 467.83 341.6 456.42 341.45 445 341.13 433.59 340.65 422.17 340.06 410.76 339.38 399.34 338.68 387.93 338 376.51 337.39 365.1 336.9 353.68 336.56 342.27 336.4 330.85 336.42 319.44 336.64 308.03 337.02 296.61 337.55 285.2 338.18 273.78 338.88 262.37 339.58 250.95 340.24 239.54 340.8 228.12 341.24 216.71 341.51 205.29 341.6 193.88 341.51 182.47 341.22 171.05 340.78 159.64 340.21 148.22 339.55 136.81 338.85 125.39 338.16 113.98 337.53 102.56 337 91.15 336.62 79.73 336.42 68.32 336.4 56.9 336.57 45.49 336.92 34.08 337.41 22.66" stroke-dasharray="2 5" transform="rotate(8.48, 711, 400)" opacity="0.18"></path><path d="M351.53 42.38Q362.12 45.78 372.72 48.97 383.32 51.71 393.92 53.74 404.52 54.89 415.11 55.08 425.71 54.27 436.31 52.55 446.91 50.05 457.5 47 468.1 43.64 478.7 40.27 489.3 37.18 499.89 34.63 510.49 32.83 521.09 31.94 531.69 32.04 542.28 33.12 552.88 35.08 563.48 37.76 574.08 40.93 584.67 44.32 595.27 47.64 605.87 50.6 616.47 52.96 627.06 54.51 637.66 55.12 648.26 54.74 658.86 53.4 669.46 51.21 680.05 48.37 690.65 45.11 701.25 41.71 711.85 38.46 722.44 35.65 733.04 33.5 743.64 32.21 754.24 31.88 764.83 32.54 775.43 34.13 786.03 36.53 796.63 39.52 807.22 42.85 817.82 46.23 828.42 49.38 839.02 52.03 849.61 53.95 860.21 54.98 870.81 55.02 881.41 54.09 892 52.25 902.6 49.66 913.2 46.55 923.8 43.17 934.4 39.83 944.99 36.79 955.59 34.33 966.19 32.65 976.79 31.9 987.38 32.13 997.98 33.34 1008.58 35.41 1022.08 45.31 1023.03 63.52 1024.05 74.58 1027.97 85.65 1034.52 96.71 1043.28 107.78 1053.65 118.84 1064.95 129.91 1076.41 140.97 1087.29 152.04 1096.84 163.1 1104.43 174.17 1109.55 185.23 1111.87 196.3 1111.23 207.36 1107.67 218.43 1101.42 229.49 1092.92 240.56 1082.71 251.62 1071.49 262.69 1060 273.75 1049.01 284.82 1039.26 295.88 1031.39 306.95 1025.93 318.01 1023.25 329.07 1023.52 340.14 1026.72 351.2 1032.65 362.27 1040.9 373.33 1050.93 384.4 1062.06 395.46 1073.56 406.53 1084.65 417.59 1094.59 428.66 1102.73 439.72 1108.52 450.79 1111.57 461.85 1111.67 472.92 1108.83 483.98 1103.23 495.05 1095.24 506.11 1085.4 517.18 1074.37 528.24 1062.87 539.31 1051.69 550.37 1041.56 561.44 1033.16 572.5 1027.05 583.57 1023.65 594.63 1023.17 605.7 1025.65 616.76 1030.92 627.83 1038.63 638.89 1048.27 649.96 1059.2 661.02 1070.67 672.09 1081.94 683.15 1092.24 694.22 1100.89 705.28 1107.31 716.35 1111.07 727.41 1105 738.71 1086.31 729.82 1074.56 722.99 1062.82 719.02 1051.07 718.24 1039.32 720.73 1027.57 726.27 1015.82 734.39 1004.07 744.4 992.32 755.44 980.57 766.56 968.82 776.83 957.07 785.37 945.32 791.44 933.57 794.53 921.82 794.37 910.07 790.98 898.32 784.65 886.57 775.91 874.82 765.52 863.07 754.36 851.32 743.38 839.57 733.52 827.82 725.62 816.07 720.35 804.32 718.17 792.57 719.26 780.82 723.53 769.07 730.61 757.32 739.9 745.57 750.6 733.82 761.81 722.07 772.57 710.32 781.95 698.57 789.16 686.82 793.58 675.07 794.84 663.32 792.83 651.57 787.71 639.82 779.93 628.07 770.15 616.32 759.21 604.57 748.03 592.82 737.58 581.07 728.74 569.32 722.27 557.57 718.72 545.82 718.39 534.07 721.32 522.32 727.24 510.57 735.67 498.82 745.87 487.07 756.97 475.32 768.04 463.57 778.12 451.82 786.36 440.07 792.05 428.32 794.7 416.57 794.09 404.82 790.28 393.07 783.58 381.32 774.57 369.57 764.02 357.82 752.82 357.99 741.72 357.92 730.62 357.63 719.52 357.12 708.42 356.44 697.32 355.63 686.22 354.75 675.12 353.84 664.02 352.98 652.92 352.22 641.82 351.62 630.72 351.2 619.62 351.01 608.52 351.05 597.41 351.31 586.31 351.79 575.21 352.45 564.11 353.25 553.01 354.13 541.91 355.04 530.81 355.9 519.71 356.68 508.61 357.31 497.51 357.75 486.41 357.97 475.31 357.96 464.21 357.72 453.11 357.27 442.01 356.63 430.9 355.84 419.8 354.97 408.7 354.07 397.6 353.19 386.5 352.4 375.4 351.75 364.3 351.29 353.2 351.03 342.1 351.01 331 351.22 319.9 351.65 308.8 352.27 297.7 353.04 286.6 353.91 275.5 354.81 264.4 355.69 253.29 356.5 242.19 357.16 231.09 357.66 219.99 357.94 208.89 357.99 197.79 357.8 186.69 357.4 175.59 356.8 164.49 356.05 153.39 355.2 142.29 354.29 131.19 353.41 120.09 352.59 108.99 351.9 97.89 351.38 86.78 351.08 75.68 351 64.58 351.15 53.48 351.53 42.38" stroke-dasharray="4 2" transform="rotate(12.719999999999999, 711, 400)" opacity="0.17"></path><path d="M365.69 62.74Q375.74 65.81 385.8 68.35 395.86 70.16 405.91 71.09 415.97 71.08 426.02 70.13 436.08 68.3 446.13 65.75 456.19 62.67 466.24 59.3 476.3 55.91 486.36 52.76 496.41 50.1 506.47 48.13 516.52 47.01 526.58 46.83 536.63 47.6 546.69 49.25 556.74 51.67 566.8 54.66 576.86 57.99 586.91 61.4 596.97 64.62 607.02 67.4 617.08 69.52 627.13 70.83 637.19 71.2 647.24 70.63 657.3 69.14 667.36 66.86 677.41 63.97 687.47 60.69 697.52 57.27 707.58 53.99 717.63 51.11 727.69 48.83 737.75 47.36 747.8 46.79 757.86 47.17 767.91 48.48 777.97 50.61 788.02 53.4 798.08 56.62 808.13 60.03 818.19 63.35 828.25 66.34 838.3 68.75 848.36 70.4 858.41 71.16 868.47 70.97 878.52 69.85 888.58 67.87 898.63 65.2 908.69 62.05 918.75 58.66 928.8 55.29 938.86 52.22 948.91 49.67 958.97 47.85 969.02 46.9 979.08 46.9 989.13 47.84 1003.82 56.14 1010.3 73.07 1014.7 83.5 1021.38 93.93 1029.93 104.37 1039.84 114.8 1050.48 125.24 1061.22 135.67 1071.39 146.1 1080.38 156.54 1087.63 166.97 1092.71 177.41 1095.3 187.84 1095.24 198.27 1092.54 208.71 1087.36 219.14 1080.03 229.58 1070.98 240.01 1060.77 250.44 1050.02 260.88 1039.39 271.31 1029.54 281.74 1021.06 292.18 1014.46 302.61 1010.16 313.05 1008.42 323.48 1009.34 333.91 1012.86 344.35 1018.78 354.78 1026.73 365.22 1036.21 375.65 1046.67 386.08 1057.45 396.52 1067.89 406.95 1077.37 417.39 1085.29 427.82 1091.18 438.25 1094.68 448.69 1095.56 459.12 1093.79 469.55 1089.46 479.99 1082.84 490.42 1074.34 500.86 1064.47 511.29 1053.84 521.72 1043.1 532.16 1032.9 542.59 1023.87 553.03 1016.55 563.46 1011.4 573.89 1008.73 584.33 1008.71 594.76 1011.33 605.19 1016.43 615.63 1023.71 626.06 1032.72 636.5 1042.9 646.93 1053.64 657.36 1064.28 667.8 1074.16 678.23 1082.7 688.67 1089.36 699.1 1089.01 710.82 1073.02 706.49 1061.75 703.57 1050.48 703.58 1039.21 706.51 1027.95 712.14 1016.68 720.02 1005.41 729.54 994.14 739.95 982.87 750.45 971.6 760.2 960.34 768.46 949.07 774.57 937.8 778.06 926.53 778.65 915.26 776.3 903.99 771.19 892.73 763.72 881.46 754.48 870.19 744.18 858.92 733.64 847.65 723.67 836.38 715.05 825.12 708.46 813.85 704.41 802.58 703.22 791.31 704.98 780.04 709.56 768.77 716.59 757.51 725.52 746.24 735.67 734.97 746.23 723.7 756.38 712.43 765.34 701.16 772.38 689.9 776.98 678.63 778.77 667.36 777.6 656.09 773.57 644.82 767 633.55 758.4 622.29 748.44 611.02 737.89 599.75 727.59 588.48 718.34 577.21 710.85 565.94 705.72 554.68 703.35 543.41 703.92 532.14 707.38 520.87 713.47 509.6 721.71 498.33 731.46 487.07 741.95 475.8 752.37 464.53 761.9 453.26 769.79 441.99 775.44 430.72 778.39 419.46 778.43 408.19 775.54 396.92 769.95 385.65 762.1 374.38 752.6 374.2 741.82 373.76 731.04 373.09 720.26 372.23 709.48 371.23 698.7 370.16 687.92 369.08 677.14 368.05 666.37 367.15 655.59 366.41 644.81 365.9 634.03 365.63 623.25 365.64 612.47 365.91 601.69 366.42 590.91 367.16 580.13 368.07 569.35 369.1 558.58 370.18 547.8 371.25 537.02 372.25 526.24 373.1 515.46 373.77 504.68 374.2 493.9 374.38 483.12 374.29 472.34 373.94 461.57 373.35 450.79 372.55 440.01 371.6 429.23 370.54 418.45 369.46 407.67 368.41 396.89 367.45 386.11 366.65 375.33 366.05 364.55 365.7 353.78 365.61 343 365.78 332.22 366.21 321.44 366.88 310.66 367.73 299.88 368.73 289.1 369.8 278.32 370.88 267.54 371.91 256.77 372.82 245.99 373.56 235.21 374.08 224.43 374.35 213.65 374.36 202.87 374.1 192.09 373.58 181.31 372.85 170.53 371.95 159.75 370.92 148.98 369.84 138.2 368.77 127.42 367.77 116.64 366.91 105.86 366.24 95.08 365.79 84.3 365.61 73.52 365.69 62.74" stroke-dasharray="4 5" transform="rotate(16.96, 711, 400)" opacity="0.84"></path><path d="M380.28 82.93Q389.87 85.17 399.47 86.66 409.06 87.27 418.66 86.98 428.25 85.8 437.85 83.81 447.44 81.16 457.04 78.03 466.63 74.65 476.23 71.27 485.82 68.11 495.42 65.4 505.01 63.35 514.61 62.08 524.2 61.7 533.79 62.24 543.39 63.64 552.98 65.82 562.58 68.62 572.17 71.83 581.77 75.24 591.36 78.59 600.96 81.65 610.55 84.2 620.15 86.06 629.74 87.09 639.34 87.23 648.93 86.46 658.52 84.84 668.12 82.48 677.71 79.56 687.31 76.27 696.9 72.85 706.5 69.56 716.09 66.61 725.69 64.23 735.28 62.57 744.88 61.77 754.47 61.87 764.07 62.87 773.66 64.7 783.25 67.23 792.85 70.28 802.44 73.62 812.04 77.03 821.63 80.25 831.23 83.07 840.82 85.28 850.42 86.71 860.01 87.28 869.61 86.94 879.2 85.71 888.8 83.68 898.39 81 907.98 77.85 917.58 74.47 927.17 71.08 936.77 67.94 946.36 65.27 955.96 63.25 965.55 62.04 975.15 61.71 990.93 67.94 1002.1 83.45 1009 93.3 1017.42 103.15 1026.91 113 1036.93 122.85 1046.93 132.7 1056.35 142.55 1064.66 152.4 1071.4 162.26 1076.2 172.11 1078.79 181.96 1079.02 191.81 1076.88 201.66 1072.49 211.51 1066.1 221.36 1058.06 231.22 1048.82 241.07 1038.89 250.92 1028.83 260.77 1019.19 270.62 1010.52 280.47 1003.3 290.32 997.92 300.17 994.7 310.03 993.8 319.88 995.28 329.73 999.05 339.58 1004.91 349.43 1012.53 359.28 1021.49 369.13 1031.28 378.99 1041.36 388.84 1051.17 398.69 1060.16 408.54 1067.84 418.39 1073.77 428.24 1077.62 438.09 1079.18 447.94 1078.37 457.8 1075.22 467.65 1069.92 477.5 1062.75 487.35 1054.12 497.2 1044.51 507.05 1034.46 516.9 1024.51 526.75 1015.24 536.61 1007.15 546.46 1000.69 556.31 996.23 566.16 994.01 576.01 994.15 585.86 996.66 595.71 1001.38 605.57 1008.06 615.42 1016.33 625.27 1025.71 635.12 1035.7 644.97 1045.73 654.82 1055.25 664.67 1063.72 674.52 1067.85 687.19 1054.31 688.31 1043.6 689.27 1032.89 692.81 1022.18 698.67 1011.47 706.45 1000.76 715.58 990.06 725.42 979.35 735.26 968.64 744.41 957.93 752.21 947.22 758.11 936.51 761.68 925.8 762.68 915.09 761.03 904.38 756.85 893.67 750.43 882.96 742.24 872.26 732.86 861.55 722.95 850.84 713.22 840.13 704.37 829.42 697.02 818.71 691.7 808 688.79 797.29 688.49 786.58 690.83 775.87 695.63 765.16 702.57 754.46 711.13 743.75 720.72 733.04 730.65 722.33 740.21 711.62 748.73 700.91 755.59 690.2 760.3 679.49 762.54 668.78 762.14 658.07 759.13 647.37 753.72 636.66 746.3 625.95 737.4 615.24 727.65 604.53 717.75 593.82 708.4 583.11 700.27 572.4 693.94 561.69 689.85 550.98 688.3 540.27 689.4 529.57 693.07 518.86 699.05 508.15 706.92 497.44 716.1 486.73 725.96 476.02 735.78 465.31 744.87 454.6 752.58 443.89 758.37 433.18 761.81 422.48 762.66 411.77 760.87 401.06 756.55 390.35 750.03 389.72 739.6 388.86 729.18 387.81 718.76 386.64 708.33 385.4 697.91 384.16 687.49 383 677.06 381.98 666.64 381.15 656.22 380.57 645.79 380.26 635.37 380.24 624.95 380.51 614.52 381.07 604.1 381.86 593.68 382.87 583.25 384.01 572.83 385.24 562.41 386.49 551.98 387.68 541.56 388.74 531.14 389.63 520.71 390.29 510.29 390.67 499.87 390.78 489.44 390.58 479.02 390.11 468.6 389.37 458.17 388.42 447.75 387.31 437.33 386.1 426.9 384.85 416.48 383.64 406.06 382.53 395.63 381.59 385.21 380.86 374.79 380.4 364.36 380.21 353.94 380.32 343.52 380.72 333.09 381.39 322.67 382.28 312.25 383.35 301.82 384.55 291.4 385.79 280.97 387.02 270.55 388.16 260.13 389.16 249.7 389.95 239.28 390.49 228.86 390.75 218.43 390.73 208.01 390.41 197.59 389.81 187.16 388.98 176.74 387.95 166.32 386.79 155.89 385.55 145.47 384.31 135.05 383.14 124.62 382.09 114.2 381.24 103.78 380.62 93.35 380.28 82.93" stroke-dasharray="5 2" transform="rotate(21.200000000000003, 711, 400)" opacity="0.45"></path><path d="M395.64 102.08Q404.85 103.13 414.05 103.34 423.26 102.68 432.46 101.21 441.67 99 450.87 96.22 460.08 93.03 469.28 89.65 478.49 86.29 487.69 83.17 496.89 80.49 506.1 78.42 515.3 77.11 524.51 76.62 533.71 77 542.92 78.22 552.12 80.2 561.33 82.82 570.53 85.89 579.74 89.24 588.94 92.63 598.15 95.85 607.35 98.69 616.56 100.98 625.76 102.55 634.97 103.31 644.17 103.21 653.38 102.25 662.58 100.5 671.78 98.08 680.99 95.13 690.19 91.85 699.4 88.45 708.6 85.15 717.81 82.16 727.01 79.68 736.22 77.87 745.42 76.84 754.63 76.66 763.83 77.34 773.04 78.84 782.24 81.06 791.45 83.86 800.65 87.06 809.86 90.44 819.06 93.8 828.26 96.91 837.47 99.57 846.67 101.62 855.88 102.91 865.08 103.37 874.29 102.96 883.49 101.72 892.7 99.72 901.9 97.09 911.11 94 920.31 90.65 929.52 87.26 938.72 84.05 947.93 81.22 957.13 78.96 966.34 77.41 975.54 76.67 984.74 76.8 990.32 86.13 997.45 95.46 1005.77 104.79 1014.85 114.12 1024.25 123.45 1033.48 132.78 1042.08 142.11 1049.62 151.43 1055.71 160.76 1060.04 170.09 1062.4 179.42 1062.67 188.75 1060.83 198.08 1056.98 207.41 1051.31 216.74 1044.11 226.07 1035.74 235.4 1026.62 244.73 1017.22 254.06 1008.01 263.38 999.46 272.71 991.99 282.04 985.99 291.37 981.76 300.7 979.52 310.03 979.36 319.36 981.32 328.69 985.28 338.02 991.04 347.35 998.32 356.68 1006.74 366 1015.89 375.33 1025.29 384.66 1034.47 393.99 1042.98 403.32 1050.37 412.65 1056.28 421.98 1060.4 431.31 1062.54 440.64 1062.57 449.97 1060.5 459.3 1056.44 468.63 1050.58 477.95 1043.23 487.28 1034.76 496.61 1025.59 505.94 1016.18 515.27 1007.02 524.6 998.57 533.93 991.25 543.26 985.43 552.59 981.41 561.92 979.39 571.25 979.48 580.58 981.66 589.9 985.83 599.23 991.78 608.56 999.2 617.89 1007.73 627.22 1016.92 636.55 1026.33 645.88 1035.46 655.21 1042.44 669.03 1030.93 675.53 1020.84 679.77 1010.75 685.96 1000.66 693.7 990.57 702.5 980.49 711.78 970.4 720.95 960.31 729.41 950.22 736.61 940.13 742.1 930.04 745.51 919.95 746.62 909.87 745.36 899.78 741.82 889.69 736.23 879.6 728.93 869.51 720.41 859.42 711.22 849.33 701.95 839.25 693.2 829.16 685.54 819.07 679.45 808.98 675.34 798.89 673.47 788.8 673.96 778.72 676.78 768.63 681.75 758.54 688.54 748.45 696.72 738.36 705.76 728.27 715.07 718.18 724.05 708.1 732.13 698.01 738.77 687.92 743.55 677.83 746.17 667.74 746.44 657.65 744.36 647.56 740.06 637.48 733.82 627.39 726.03 617.3 717.21 607.21 707.92 597.12 698.77 587.03 690.34 576.95 683.18 566.86 677.76 556.77 674.42 546.68 673.37 536.59 674.7 526.5 678.31 516.41 683.96 506.33 691.3 496.24 699.85 486.15 709.05 476.06 718.32 465.97 727.04 455.88 734.67 445.79 740.69 435.71 744.74 425.62 746.54 409.95 739.52 403.13 723.05 401.78 713.04 400.39 703.02 399.04 693.01 397.78 682.99 396.68 672.98 395.8 662.96 395.19 652.94 394.87 642.93 394.85 632.91 395.15 622.9 395.74 612.88 396.6 602.87 397.68 592.85 398.93 582.83 400.28 572.82 401.67 562.8 403.03 552.79 404.28 542.77 405.36 532.76 406.23 522.74 406.83 512.72 407.13 502.71 407.13 492.69 406.81 482.68 406.2 472.66 405.33 462.65 404.24 452.63 402.99 442.61 401.63 432.6 400.24 422.58 398.89 412.57 397.65 402.55 396.57 392.54 395.72 382.52 395.14 372.5 394.85 362.49 394.87 352.47 395.2 342.46 395.83 332.44 396.71 322.43 397.82 312.41 399.08 302.39 400.44 292.38 401.83 282.36 403.17 272.35 404.41 262.33 405.47 252.32 406.31 242.3 406.88 232.28 407.15 222.27 407.11 212.25 406.76 202.24 406.12 192.22 405.22 182.21 404.11 172.19 402.84 162.17 401.48 152.16 400.09 142.14 398.75 132.13 397.52 122.11 396.47 112.09 395.64 102.08" stroke-dasharray="1 1" transform="rotate(25.439999999999998, 711, 400)" opacity="0.08"></path><path d="M412.01 119.44Q420.87 119.15 429.74 118.07 438.61 116.25 447.48 113.8 456.34 110.86 465.21 107.62 474.08 104.25 482.94 100.95 491.81 97.92 500.68 95.33 509.55 93.33 518.41 92.05 527.28 91.54 536.15 91.86 545.01 92.97 553.88 94.81 562.75 97.27 571.61 100.21 580.48 103.47 589.35 106.84 598.22 110.13 607.08 113.15 615.95 115.73 624.82 117.7 633.68 118.97 642.55 119.45 651.42 119.11 660.28 117.98 669.15 116.12 678.02 113.64 686.89 110.69 695.75 107.43 704.62 104.06 713.49 100.77 722.35 97.76 731.22 95.2 740.09 93.24 748.96 92 757.82 91.54 766.69 91.9 775.56 93.05 784.42 94.93 793.29 97.43 802.16 100.39 811.02 103.66 819.89 107.03 828.76 110.31 837.63 113.31 846.49 115.86 855.36 117.8 864.23 119.02 873.09 119.45 881.96 119.07 890.83 117.9 899.7 116 908.56 113.49 917.43 110.51 926.3 107.24 935.16 103.87 944.03 100.59 952.9 97.6 961.76 95.07 970.63 93.15 979.5 91.95 986.81 100.82 994.97 109.69 1003.61 118.55 1012.34 127.42 1020.76 136.29 1028.47 145.16 1035.15 154.03 1040.46 162.89 1044.18 171.76 1046.14 180.63 1046.24 189.5 1044.48 198.37 1040.95 207.23 1035.79 216.1 1029.26 224.97 1021.63 233.84 1013.28 242.71 1004.56 251.58 995.89 260.44 987.66 269.31 980.24 278.18 973.98 287.05 969.15 295.92 965.98 304.78 964.61 313.65 965.11 322.52 967.45 331.39 971.53 340.26 977.16 349.13 984.08 357.99 991.98 366.86 1000.5 375.73 1009.24 384.6 1017.81 393.47 1025.82 402.33 1032.9 411.2 1038.74 420.07 1043.05 428.94 1045.65 437.81 1046.42 446.67 1045.32 455.54 1042.41 464.41 1037.81 473.28 1031.73 482.15 1024.46 491.02 1016.32 499.88 1007.69 508.75 998.96 517.62 990.52 526.49 982.77 535.36 976.06 544.22 970.69 553.09 966.91 561.96 964.89 570.83 964.72 579.7 966.41 588.57 969.89 597.43 974.99 606.3 981.48 615.17 989.07 624.04 997.41 632.91 1006.12 641.77 1014.21 656.63 1004.19 667.57 994.76 674.11 985.33 681.83 975.9 690.29 966.47 699 957.04 707.45 947.61 715.13 938.18 721.62 928.75 726.52 919.32 729.55 909.89 730.54 900.46 729.42 891.03 726.26 881.6 721.25 872.17 714.68 862.74 706.93 853.31 698.45 843.88 689.74 834.45 681.31 825.02 673.65 815.59 667.21 806.16 662.36 796.73 659.38 787.3 658.46 777.87 659.63 768.44 662.84 759.01 667.9 749.58 674.52 740.15 682.29 730.72 690.78 721.29 699.49 711.86 707.91 702.43 715.54 693 721.94 683.57 726.74 674.14 729.66 664.71 730.53 655.28 729.29 645.85 726.03 636.42 720.92 626.99 714.27 617.56 706.46 608.13 697.96 598.7 689.26 589.27 680.86 579.84 673.25 570.41 666.89 560.98 662.14 551.55 659.27 542.12 658.47 532.69 659.76 523.26 663.08 513.83 668.24 504.4 674.93 494.97 682.76 485.54 691.27 476.11 699.98 466.68 708.36 457.25 715.94 447.82 722.26 438.39 726.96 423.53 725.37 416.6 711.42 415.1 701.87 413.66 692.32 412.35 682.78 411.23 673.23 410.35 663.68 409.75 654.13 409.46 644.58 409.49 635.04 409.83 625.49 410.49 615.94 411.41 606.39 412.57 596.84 413.91 587.3 415.37 577.75 416.87 568.2 418.36 558.65 419.77 549.1 421.02 539.56 422.07 530.01 422.87 520.46 423.37 510.91 423.56 501.36 423.43 491.82 422.98 482.27 422.23 472.72 421.23 463.17 420 453.62 418.62 444.08 417.14 434.53 415.63 424.98 414.16 415.43 412.8 405.88 411.6 396.34 410.63 386.79 409.93 377.24 409.52 367.69 409.44 358.14 409.67 348.6 410.22 339.05 411.05 329.5 412.14 319.95 413.42 310.4 414.84 300.86 416.33 291.31 417.84 281.76 419.28 272.21 420.6 262.66 421.73 253.12 422.62 243.57 423.23 234.02 423.53 224.47 423.51 214.92 423.17 205.37 422.53 195.83 421.61 186.28 420.46 176.73 419.13 167.18 417.68 157.63 416.17 148.09 414.68 138.54 413.27 128.99 412.01 119.44" stroke-dasharray="4 2" transform="rotate(29.680000000000003, 711, 400)" opacity="0.42"></path><path d="M429.43 134.53Q446.55 130.79 463.66 125.02 480.78 118.41 497.89 112.34 515.01 108.06 532.12 106.46 549.24 107.86 566.35 111.98 583.47 117.97 600.58 124.58 617.7 130.45 634.81 134.36 651.93 135.51 669.04 133.65 686.16 129.18 703.27 123.01 720.39 116.42 737.5 110.78 754.62 107.26 771.73 106.57 788.85 108.87 805.96 113.68 823.08 120 840.19 126.53 857.31 131.91 874.42 135.03 891.53 135.25 908.65 132.52 925.76 127.41 942.88 120.96 959.99 114.53 977.11 109.43 993.11 126.35 1008.61 143.26 1021.08 160.18 1028.52 177.1 1029.7 194.02 1024.45 210.93 1013.6 227.85 998.93 244.77 982.81 261.69 967.85 278.6 956.48 295.52 950.56 312.44 951.02 329.35 957.81 346.27 969.82 363.19 985.1 380.11 1001.18 397.02 1015.44 413.94 1025.57 430.86 1029.94 447.78 1027.82 464.69 1019.57 481.61 1006.52 498.53 990.79 515.44 974.93 532.36 961.52 549.28 952.72 566.2 949.97 583.11 953.71 600.03 963.34 616.95 977.29 633.87 993.3 650.78 975.78 663.22 958.26 678.92 940.74 694.64 923.22 707.11 905.7 713.78 888.18 713.24 870.66 705.62 853.14 692.49 835.62 676.57 818.1 661.15 800.58 649.42 783.06 643.81 765.54 645.48 748.02 654.09 730.5 667.84 712.98 683.91 695.46 698.96 677.94 709.88 660.42 714.4 642.9 711.61 625.38 702.06 607.86 687.74 590.34 671.62 572.82 657.02 555.3 646.96 537.77 643.54 520.25 647.45 502.73 657.89 485.21 672.69 467.69 688.8 450.17 702.88 432.65 712.02 429.47 693.97 426.7 675.93 424.79 657.88 424.04 639.84 424.59 621.79 426.34 603.74 429 585.7 432.15 567.65 435.28 549.6 437.87 531.56 439.51 513.51 439.93 495.46 439.07 477.42 437.05 459.37 434.22 441.32 431.02 423.28 427.99 405.23 425.6 387.18 424.25 369.14 424.16 351.09 425.34 333.04 427.59 315 430.57 296.95 433.77 278.91 436.69 260.86 438.84 242.81 439.89 224.77 439.65 206.72 438.17 188.67 435.69 170.63 432.61 152.58 429.43 134.53" stroke-dasharray="2 2" transform="rotate(33.92, 711, 400)" opacity="0.10"></path><path d="M447.79 147.24Q464.29 141.77 480.79 135.34 497.28 129.11 513.78 124.25 530.28 121.66 546.78 121.81 563.28 124.67 579.78 129.72 596.28 136.02 612.78 142.41 629.28 147.71 645.78 150.93 662.28 151.48 678.78 149.26 695.28 144.68 711.78 138.59 728.28 132.11 744.78 126.44 761.28 122.63 777.78 121.38 794.28 122.93 810.78 126.98 827.28 132.8 843.78 139.3 860.28 145.28 876.78 149.63 893.28 151.56 909.78 150.7 926.28 147.22 942.78 141.75 959.28 135.31 975.78 129.09 990.31 145.25 1002.55 161.42 1010.72 177.59 1013.65 193.75 1010.9 209.92 1002.87 226.09 990.74 242.25 976.25 258.42 961.51 274.58 948.64 290.75 939.53 306.92 935.48 323.08 937.09 339.25 944.11 355.41 955.54 371.58 969.71 387.75 984.58 403.91 997.99 420.08 1007.99 436.25 1013.14 452.41 1012.69 468.58 1006.7 484.74 996.05 500.91 982.28 517.08 967.37 533.24 953.5 549.41 942.67 565.58 936.46 581.74 935.75 597.91 940.66 614.07 950.47 630.24 963.76 646.41 947.55 660.76 931.34 675.61 915.13 688.23 898.92 696.27 882.72 698.25 866.51 693.81 850.3 683.76 834.09 669.96 817.88 654.97 801.67 641.55 785.46 632.2 769.25 628.62 753.04 631.5 736.83 640.29 720.62 653.38 704.41 668.33 688.21 682.39 672 692.96 655.79 698.07 639.58 696.8 623.37 689.37 607.16 677.15 590.95 662.41 574.74 647.87 558.53 636.22 542.32 629.61 526.11 629.27 509.91 635.25 493.7 646.46 477.49 660.82 461.28 675.67 445.07 688.27 442.06 671.37 439.85 654.46 438.74 637.55 438.9 620.64 440.3 603.74 442.75 586.83 445.89 569.92 449.25 553.01 452.37 536.11 454.77 519.2 456.13 502.29 456.23 485.38 455.07 468.48 452.8 451.57 449.77 434.66 446.41 417.75 443.21 400.85 440.63 383.94 439.04 367.03 438.68 350.12 439.59 333.22 441.65 316.31 444.56 299.4 447.89 282.5 451.17 265.59 453.91 248.68 455.72 231.77 456.34 214.87 455.68 197.96 453.84 181.05 451.07 164.14 447.79 147.24" stroke-dasharray="4 0" transform="rotate(38.16, 711, 400)" opacity="0.62"></path><path d="M466.73 157.85Q482.57 151.59 498.41 145.4 514.25 140.29 530.09 137.1 545.94 136.35 561.78 138.18 577.62 142.26 593.46 147.95 609.3 154.3 625.14 160.27 640.98 164.88 656.83 167.38 672.67 167.36 688.51 164.81 704.35 160.16 720.19 154.17 736.03 147.82 751.88 142.16 767.72 138.11 783.56 136.34 799.4 137.14 815.24 140.38 831.08 145.52 846.92 151.72 862.77 157.97 878.61 163.24 894.45 166.66 910.29 167.68 926.13 166.12 941.97 162.25 957.82 156.69 973.66 150.36 985.18 165.8 993.34 181.24 997.08 196.68 995.93 212.12 990.03 227.56 980.14 243 967.53 258.44 953.83 273.88 940.79 289.32 930.09 304.76 923.11 320.2 920.74 335.64 923.28 351.08 930.42 366.52 941.23 381.96 954.32 397.4 968.02 412.84 980.55 428.28 990.31 443.72 996.05 459.16 997.03 474.6 993.11 490.03 984.82 505.47 973.2 520.91 959.75 536.35 946.21 551.79 934.32 567.23 925.59 582.67 921.16 598.11 921.59 613.55 926.83 628.99 936.2 644.43 921.23 658.26 906.26 670.4 891.29 678.86 876.33 682.26 861.36 680.04 846.39 672.56 831.42 661.05 816.45 647.4 801.48 633.84 786.51 622.61 771.54 615.54 756.57 613.8 741.6 617.67 726.64 626.51 711.67 638.88 696.7 652.75 681.73 665.83 666.76 675.99 651.79 681.56 636.82 681.61 621.85 676.15 606.88 666.07 591.91 653.03 576.94 639.16 561.98 626.74 547.01 617.8 532.04 613.82 517.07 615.45 502.1 622.42 487.13 633.58 463.48 646.09 453.47 629.35 453.36 613.64 454.49 597.92 456.71 582.2 459.74 566.49 463.19 550.77 466.61 535.05 469.57 519.34 471.68 503.62 472.68 487.9 472.43 472.19 470.97 456.47 468.48 440.75 465.29 425.03 461.81 409.32 458.47 393.6 455.72 377.88 453.9 362.17 453.26 346.45 453.86 330.73 455.64 315.02 458.36 299.3 461.68 283.58 465.17 267.87 468.38 252.15 470.89 236.43 472.4 220.72 472.69 205 471.74 189.28 469.66 173.57 466.73 157.85" stroke-dasharray="1 0" transform="rotate(42.400000000000006, 711, 400)" opacity="0.40"></path><path d="M485.77 167.08Q500.87 161.03 515.98 155.92 531.08 152.49 546.18 151.22 561.29 152.3 576.39 155.57 591.49 160.57 606.6 166.57 621.7 172.71 636.8 178.08 651.9 181.93 667.01 183.7 682.11 183.12 697.21 180.29 712.32 175.61 727.42 169.75 742.52 163.57 757.63 157.96 772.73 153.72 787.83 151.48 802.94 151.55 818.04 153.92 833.14 158.25 848.24 163.92 863.35 170.1 878.45 175.91 893.55 180.51 908.66 183.22 923.76 183.66 938.86 181.77 953.97 177.81 969.07 172.37 976.66 187.06 980.49 201.75 980.14 216.45 975.65 231.14 967.52 245.84 956.67 260.53 944.33 275.23 931.89 289.92 920.77 304.61 912.22 319.31 907.21 334 906.3 348.7 909.6 363.39 916.73 378.09 926.89 392.78 938.93 407.47 951.49 422.17 963.14 436.86 972.57 451.56 978.71 466.25 980.86 480.94 978.79 495.64 972.73 510.33 963.36 525.03 951.75 539.72 939.2 554.42 927.13 569.11 916.92 583.8 909.71 598.5 906.33 613.19 907.15 627.89 912.08 642.58 898.25 653.86 884.42 662.05 870.59 665.97 856.76 665.06 842.93 659.44 829.1 649.93 815.28 637.9 801.45 625.09 787.62 613.35 773.79 604.38 759.96 599.46 746.13 599.32 732.3 603.97 718.47 612.75 704.65 624.37 690.82 637.17 676.99 649.29 663.16 658.99 649.33 664.86 635.5 666.05 621.67 662.4 607.84 654.43 594.02 643.29 580.19 630.59 566.36 618.16 552.53 607.81 538.7 601.02 524.87 598.78 511.04 601.41 497.21 608.53 475.77 618.11 467.92 602.59 468.88 588.08 470.93 573.56 473.84 559.04 477.27 544.52 480.84 530.01 484.15 515.49 486.81 500.97 488.54 486.46 489.13 471.94 488.51 457.42 486.77 442.9 484.08 428.39 480.77 413.87 477.2 399.35 473.77 384.83 470.88 370.32 468.85 355.8 467.91 341.28 468.17 326.77 469.6 312.25 472.03 297.73 475.19 283.21 478.73 268.7 482.24 254.18 485.33 239.66 487.64 225.14 488.92 210.63 489.02 196.11 487.93 181.59 485.77 167.08" stroke-dasharray="3 7" transform="rotate(46.64, 711, 400)" opacity="0.85"></path><path d="M504.34 175.91Q518.6 171.01 532.86 167.62 547.12 166.17 561.39 166.84 575.65 169.54 589.91 173.94 604.17 179.49 618.44 185.47 632.7 191.14 646.96 195.79 661.22 198.82 675.49 199.86 689.75 198.77 704.01 195.7 718.27 191.02 732.54 185.33 746.8 179.35 761.06 173.83 775.32 169.46 789.59 166.8 803.85 166.18 818.11 167.68 832.37 171.11 846.64 176.04 860.9 181.84 875.16 187.79 889.42 193.14 903.69 197.2 917.95 199.48 932.21 199.68 946.47 197.78 960.74 194.01 964.11 207.9 963.92 221.8 960.19 235.69 953.28 249.59 943.87 263.48 932.9 277.38 921.45 291.27 910.64 305.17 901.54 319.06 895.06 332.95 891.82 346.85 892.15 360.74 896.02 374.64 903.04 388.53 912.53 402.43 923.54 416.32 934.99 430.22 945.75 444.11 954.76 458.01 961.13 471.9 964.23 485.8 963.75 499.69 959.75 513.59 952.61 527.48 943.05 541.37 932 555.27 920.55 569.16 909.84 583.06 900.92 596.95 894.68 610.85 891.71 624.74 892.33 638.64 879.53 646.04 866.73 649.78 853.93 649.39 841.13 644.92 828.33 636.93 815.53 626.42 802.73 614.73 789.93 603.32 777.13 593.64 764.33 586.9 751.53 583.95 738.73 585.17 725.93 590.4 713.13 598.98 700.33 609.83 687.53 621.59 674.73 632.76 661.93 641.95 649.13 648 636.33 650.13 623.53 648.09 610.73 642.13 597.93 633 585.13 621.86 572.33 610.1 559.53 599.21 546.73 590.56 533.93 585.25 521.13 583.93 508.33 586.78 489.03 591.58 483.47 576.37 485.44 563.03 488.26 549.68 491.64 536.33 495.26 522.98 498.75 509.63 501.77 496.28 504.03 482.93 505.29 469.58 505.44 456.23 504.46 442.89 502.45 429.54 499.6 416.19 496.2 402.84 492.59 389.49 489.11 376.14 486.11 362.79 483.89 349.44 482.67 336.1 482.57 322.75 483.59 309.4 485.64 296.05 488.51 282.7 491.93 269.35 495.55 256 499.01 242.65 501.98 229.31 504.16 215.96 505.34 202.61 505.4 189.26 504.34 175.91" stroke-dasharray="3 0" transform="rotate(50.879999999999995, 711, 400)" opacity="0.50"></path><path d="M521.85 185.49Q535.17 182.41 548.48 181.09 561.8 181.66 575.11 184.06 588.42 188.04 601.74 193.15 615.05 198.84 628.37 204.5 641.68 209.5 655 213.3 668.31 215.5 681.63 215.84 694.94 214.3 708.26 211.03 721.57 206.4 734.88 200.91 748.2 195.16 761.51 189.77 774.83 185.33 788.14 182.32 801.46 181.08 814.77 181.72 828.09 184.2 841.4 188.23 854.72 193.38 868.03 199.08 881.34 204.72 894.66 209.68 907.97 213.43 921.29 215.55 941 221.51 943.9 240.23 937.73 253.25 929.41 266.27 919.65 279.29 909.28 292.31 899.19 305.32 890.23 318.34 883.16 331.36 878.59 344.38 876.91 357.4 878.26 370.42 882.53 383.44 889.35 396.46 898.14 409.47 908.15 422.49 918.53 435.51 928.4 448.53 936.91 461.55 943.35 474.57 947.15 487.59 948.01 500.61 945.84 513.62 940.83 526.64 933.41 539.66 924.2 552.68 914 565.7 903.67 578.72 894.1 591.74 886.09 604.76 880.32 617.77 877.3 630.79 865.42 633.82 853.55 633.33 841.67 629.37 829.79 622.38 817.91 613.11 806.04 602.59 794.16 591.94 782.28 582.33 770.4 574.81 758.53 570.19 746.65 568.98 734.77 571.31 722.89 576.92 711.02 585.21 699.14 595.27 687.26 606.01 675.38 616.25 663.5 624.89 651.63 630.98 639.75 633.87 627.87 633.23 615.99 629.14 604.12 622.03 592.24 612.7 580.36 602.14 568.48 591.51 556.61 581.97 544.73 574.56 532.85 570.07 520.97 569.01 503.68 568.23 500.28 552.74 503.08 540.49 506.42 528.25 510.02 516.01 513.58 503.77 516.79 491.53 519.38 479.29 521.13 467.04 521.88 454.8 521.59 442.56 520.26 430.32 518.01 418.08 515.04 405.84 511.6 393.6 507.98 381.35 504.49 369.11 501.42 356.87 499.04 344.63 497.55 332.39 497.08 320.15 497.67 307.9 499.26 295.66 501.73 283.42 504.85 271.18 508.37 258.94 511.99 246.7 515.4 234.45 518.3 222.21 520.45 209.97 521.67 197.73 521.85 185.49" stroke-dasharray="3 1" transform="rotate(55.120000000000005, 711, 400)" opacity="0.74"></path><path d="M537.84 196.89Q550.11 195.97 562.38 196.73 574.65 199.08 586.92 202.82 599.19 207.6 611.46 212.97 623.73 218.44 636 223.5 648.27 227.67 660.54 230.57 672.81 231.93 685.08 231.63 697.35 229.69 709.62 226.29 721.89 221.75 734.16 216.49 746.43 211 758.7 205.79 770.97 201.33 783.24 198.06 795.51 196.26 807.78 196.11 820.05 197.62 832.32 200.65 844.59 204.92 856.86 210.04 869.13 215.52 881.4 220.86 893.67 225.56 905.94 229.18 922.53 237.73 921.04 256.12 913.49 268.18 904.74 280.25 895.42 292.31 886.22 304.37 877.81 316.43 870.78 328.49 865.67 340.55 862.82 352.61 862.46 364.67 864.61 376.73 869.11 388.79 875.64 400.85 883.71 412.91 892.76 424.97 902.11 437.03 911.09 449.09 919.04 461.15 925.4 473.21 929.69 485.27 931.6 497.33 931 509.4 927.94 521.46 922.62 533.52 915.44 545.58 906.92 557.64 897.68 569.7 888.39 581.76 879.73 593.82 872.32 605.88 866.7 617.94 855.66 616.87 844.62 612.94 833.58 606.5 822.54 598.16 811.5 588.69 800.45 578.97 789.41 569.9 778.37 562.33 767.33 556.95 756.29 554.27 745.25 554.54 734.21 557.72 723.16 563.54 712.12 571.43 701.08 580.68 690.04 590.43 679 599.76 667.96 607.81 656.92 613.84 645.87 617.28 634.83 617.82 623.79 615.4 612.75 610.25 601.71 602.85 590.67 593.88 579.63 584.18 568.59 574.65 557.54 566.18 546.5 559.54 535.46 555.36 519.98 549.23 518.37 533.23 521.7 522.02 525.26 510.81 528.8 499.6 532.07 488.39 534.82 477.18 536.86 465.97 538.04 454.75 538.27 443.54 537.53 432.33 535.89 421.12 533.45 409.91 530.4 398.7 526.96 387.49 523.37 376.27 519.9 365.06 516.8 353.85 514.3 342.64 512.58 331.43 511.75 320.22 511.89 309.01 512.98 297.8 514.94 286.58 517.64 275.37 520.86 264.16 524.39 252.95 527.96 241.74 531.32 230.53 534.22 219.32 536.44 208.1 537.84 196.89" stroke-dasharray="1 3" transform="rotate(59.36000000000001, 711, 400)" opacity="0.96"></path><path d="M552.01 210.96Q563.16 212.13 574.32 214.65 585.47 218.34 596.62 222.9 607.78 227.97 618.93 233.16 630.08 238.07 641.23 242.3 652.39 245.54 663.54 247.52 674.69 248.09 685.85 247.21 697 244.95 708.15 241.48 719.31 237.07 730.46 232.07 741.61 226.87 752.77 221.88 763.92 217.48 775.07 214.01 786.23 211.76 797.38 210.9 808.53 211.48 819.69 213.48 830.84 216.72 841.99 220.96 853.15 225.87 864.3 231.07 875.45 236.14 886.61 240.69 900.49 251.14 896.21 268.94 888.29 279.97 879.96 291 871.73 302.03 864.09 313.06 857.51 324.09 852.4 335.12 849.07 346.14 847.72 357.17 848.43 368.2 851.16 379.23 855.75 390.26 861.91 401.29 869.26 412.32 877.37 423.35 885.72 434.38 893.82 445.41 901.16 456.44 907.31 467.47 911.87 478.5 914.58 489.53 915.27 500.56 913.89 511.59 910.54 522.62 905.41 533.65 898.82 544.68 891.17 555.71 882.93 566.74 874.6 577.77 866.69 588.8 859.69 599.83 849.43 595.58 839.17 589.38 828.91 581.7 818.65 573.14 808.39 564.38 798.12 556.1 787.86 548.94 777.6 543.47 767.34 540.1 757.08 539.11 746.82 540.58 736.56 544.38 726.3 550.22 716.04 557.64 705.78 566.07 695.51 574.85 685.25 583.28 674.99 590.72 664.73 596.57 654.47 600.39 644.21 601.87 633.95 600.91 623.69 597.56 613.43 592.1 603.16 584.96 592.9 576.68 582.64 567.92 572.38 559.36 562.12 551.67 551.86 545.45 537.94 535.08 537.6 518.7 541.1 508.44 544.56 498.19 547.77 487.93 550.54 477.67 552.69 467.41 554.1 457.15 554.68 446.9 554.39 436.64 553.25 426.38 551.33 416.12 548.76 405.86 545.67 395.6 542.27 385.35 538.76 375.09 535.36 364.83 532.27 354.57 529.68 344.31 527.76 334.06 526.61 323.8 526.31 313.54 526.88 303.28 528.28 293.02 530.42 282.77 533.18 272.51 536.39 262.25 539.85 251.99 543.35 241.73 546.67 231.47 549.62 221.22 552.01 210.96" stroke-dasharray="2 2" transform="rotate(63.599999999999994, 711, 400)" opacity="0.71"></path><path d="M564.33 228.11Q574.33 230.95 584.32 234.7 594.32 239.11 604.31 243.91 614.31 248.77 624.3 253.4 634.3 257.48 644.3 260.75 654.29 263 664.29 264.09 674.28 263.95 684.28 262.58 694.27 260.07 704.27 256.59 714.26 252.36 724.26 247.65 734.25 242.78 744.25 238.04 754.24 233.76 764.24 230.2 774.23 227.6 784.23 226.12 794.23 225.86 804.22 226.84 814.22 228.99 824.21 232.18 834.21 236.2 844.2 240.78 854.2 245.64 864.19 250.45 875.89 261.8 870.42 278.63 863.03 288.58 855.78 298.53 849.05 308.48 843.17 318.42 838.45 328.37 835.12 338.32 833.35 348.27 833.24 358.21 834.77 368.16 837.89 378.11 842.42 388.06 848.15 398 854.78 407.95 861.97 417.9 869.37 427.85 876.6 437.8 883.29 447.74 889.11 457.69 893.76 467.64 897.01 477.59 898.69 487.53 898.71 497.48 897.08 507.43 893.89 517.38 889.28 527.32 883.49 537.27 876.82 547.22 869.61 557.17 853.85 569.02 836 563.76 826.5 556.03 816.99 548.23 807.49 540.87 797.99 534.42 788.49 529.3 778.99 525.84 769.49 524.27 759.99 524.68 750.48 527.05 740.98 531.23 731.48 536.95 721.98 543.83 712.48 551.43 702.98 559.27 693.48 566.82 683.97 573.62 674.47 579.2 664.97 583.23 655.47 585.43 645.97 585.66 636.47 583.91 626.97 580.29 617.46 575.04 607.96 568.49 598.46 561.06 588.96 553.25 579.46 545.55 569.96 538.46 557.36 525.47 557.65 509.14 560.96 499.77 564.02 490.4 566.67 481.03 568.78 471.67 570.25 462.3 570.99 452.93 570.98 443.56 570.21 434.2 568.72 424.83 566.59 415.46 563.92 406.09 560.86 396.72 557.54 387.36 554.15 377.99 550.85 368.62 547.81 359.25 545.19 349.89 543.11 340.52 541.68 331.15 540.98 321.78 541.03 312.41 541.84 303.05 543.37 293.68 545.53 284.31 548.23 274.94 551.31 265.58 554.63 256.21 558.02 246.84 561.31 237.47 564.33 228.11" stroke-dasharray="3 4" transform="rotate(67.84, 711, 400)" opacity="0.13"></path><path d="M575.06 248.24Q592.72 256.38 610.38 265.37 628.04 273.35 645.71 278.67 663.37 280.23 681.03 277.71 698.69 271.62 716.35 263.23 734.01 254.28 751.67 246.61 769.33 241.81 787 240.88 804.66 244.01 822.32 250.55 839.98 259.14 857.64 268.02 844.75 285.71 832.79 303.39 823.7 321.08 818.96 338.76 819.33 356.45 824.76 374.14 834.36 391.82 846.58 409.51 859.44 427.2 870.84 444.88 878.95 462.57 882.44 480.26 880.74 497.94 874.14 515.63 863.71 533.31 851.13 551 833.67 537.43 816.22 524.28 798.76 514.28 781.3 509.5 763.84 510.93 746.39 518.26 728.93 529.99 711.47 543.68 694.01 556.51 676.56 565.82 659.1 569.68 641.64 567.3 624.18 559.16 606.73 546.95 589.27 533.2 571.81 520.76 578.09 503.73 583.3 486.69 586.59 469.66 587.43 452.63 585.69 435.6 581.65 418.56 575.96 401.53 569.54 384.5 563.45 367.47 558.65 350.44 555.94 333.4 555.76 316.37 558.12 299.34 562.66 282.31 568.63 265.27 575.06 248.24" stroke-dasharray="7 4" transform="rotate(72.08, 711, 400)" opacity="0.30"></path><path d="M584.72 270.75Q600.1 278.98 615.48 286.72 630.86 292.7 646.24 295.94 661.62 295.91 677 292.6 692.38 286.58 707.75 278.82 723.13 270.59 738.51 263.25 753.89 258 769.27 255.71 784.65 256.74 800.03 260.93 815.41 267.6 830.79 275.64 820.18 291.13 811.48 306.62 805.8 322.11 803.87 337.6 805.94 353.09 811.74 368.58 820.54 384.07 831.19 399.56 842.33 415.05 852.53 430.54 860.48 446.03 865.15 461.52 865.94 477.01 862.76 492.5 856 507.99 846.55 523.48 830.72 511.76 814.89 502.05 799.06 495.94 783.23 494.44 767.4 497.78 751.57 505.43 735.74 516.12 719.9 528.1 704.07 539.41 688.24 548.2 672.41 553.01 656.58 553.06 640.75 548.34 624.92 539.62 609.09 528.35 593.26 516.36 598.38 501.01 602.04 485.66 603.76 470.3 603.33 454.95 600.8 439.6 596.5 424.25 590.97 408.9 584.93 393.55 579.16 378.2 574.39 362.85 571.25 347.5 570.13 332.15 571.17 316.8 574.25 301.45 578.97 286.1 584.72 270.75" stroke-dasharray="2 4" transform="rotate(76.32, 711, 400)" opacity="0.11"></path><path d="M594.04 294.57Q607.24 301.61 620.43 307.37 633.62 311.14 646.81 312.43 660 311.08 673.19 307.26 686.38 301.46 699.58 294.4 712.77 286.97 725.96 280.12 739.15 274.69 752.34 271.39 765.53 270.62 778.72 272.48 791.92 276.74 805.11 282.86 797.57 296.21 792.19 309.56 789.51 322.92 789.78 336.27 792.99 349.62 798.81 362.97 806.67 376.33 815.8 389.68 825.29 403.03 834.21 416.38 841.68 429.74 846.96 443.09 849.53 456.44 849.14 469.79 845.82 483.15 839.9 496.5 825.81 488 811.72 482.09 797.64 479.51 783.55 480.58 769.46 485.16 755.37 492.69 741.28 502.21 727.19 512.52 713.1 522.33 699.01 530.39 684.93 535.69 670.84 537.56 656.75 535.77 642.66 530.55 628.57 522.54 614.48 512.76 617.96 499.12 619.91 485.49 620.14 471.85 618.63 458.21 615.53 444.58 611.14 430.94 605.9 417.3 600.33 403.66 594.96 390.03 590.35 376.39 586.93 362.75 585.04 349.12 584.88 335.48 586.46 321.84 589.61 308.2 594.04 294.57" stroke-dasharray="3 5" transform="rotate(80.56, 711, 400)" opacity="0.92"></path><path d="M603.9 318.33Q615.02 323.31 626.14 326.78 637.26 328.4 648.38 328.04 659.5 325.73 670.62 321.67 681.74 316.25 692.86 309.98 703.98 303.42 715.1 297.2 726.22 291.89 737.34 287.97 748.46 285.83 759.58 285.65 774.1 294.92 775.09 313.68 774.78 324.98 776.6 336.28 780.41 347.58 785.93 358.89 792.76 370.19 800.41 381.49 808.32 392.79 815.91 404.1 822.64 415.4 828.02 426.7 831.65 438 833.27 449.31 825.35 463.86 805.72 464.73 793.5 464.97 781.28 467.81 769.06 472.99 756.84 480.02 744.62 488.26 732.4 496.94 720.18 505.26 707.96 512.43 695.73 517.8 683.51 520.87 671.29 521.35 659.07 519.19 646.85 514.6 634.63 508.01 636.28 496.16 636.6 484.3 635.57 472.45 633.26 460.59 629.85 448.74 625.57 436.88 620.74 425.03 615.72 413.17 610.86 401.32 606.51 389.46 603 377.61 600.58 365.75 599.43 353.9 599.62 342.04 601.15 330.19 603.9 318.33" stroke-dasharray="5 1" transform="rotate(84.80000000000001, 711, 400)" opacity="0.79"></path><path d="M615.16 340.63Q624.33 343.23 633.49 344.48 642.66 344.32 651.82 342.74 660.99 339.85 670.15 335.85 679.32 330.98 688.48 325.56 697.65 319.94 706.81 314.49 715.98 309.55 725.14 305.46 734.31 302.46 743.47 300.76 756.46 305.7 760.17 320.28 761.5 329.62 764.19 338.97 768.11 348.31 773.07 357.65 778.8 367 785.02 376.34 791.42 385.68 797.67 395.03 803.45 404.37 808.48 413.72 812.5 423.06 815.31 432.4 811.65 445.71 796.3 450.04 786.06 452.19 775.82 455.97 765.58 461.15 755.33 467.38 745.09 474.27 734.85 481.36 724.61 488.21 714.37 494.36 704.13 499.42 693.89 503.07 683.65 505.06 673.41 505.27 658.04 497.05 651.91 480.43 649.98 470.45 647.22 460.46 643.77 450.48 639.79 440.49 635.5 430.5 631.11 420.52 626.83 410.53 622.9 400.55 619.5 390.56 616.8 380.58 614.96 370.59 614.04 360.6 614.11 350.62 615.16 340.63" stroke-dasharray="6 2" transform="rotate(89.03999999999999, 711, 400)" opacity="0.41"></path><path d="M628.56 360.22Q643.17 360.18 657.78 356.5 672.39 349.79 687 341.14 701.6 331.97 716.21 323.79 730.82 317.95 745.43 315.39 747.27 330.31 752.41 345.23 760.19 360.15 769.63 375.07 779.49 389.99 788.52 404.91 795.56 419.83 799.69 434.75 783.33 437.84 766.97 444.88 750.6 454.74 734.24 465.78 717.88 476.21 701.51 484.3 685.15 488.73 668.79 488.78 665.72 472.71 660.51 456.64 653.81 440.57 646.5 424.5 639.51 408.43 633.73 392.36 629.92 376.29 628.56 360.22" stroke-dasharray="2 0" transform="rotate(93.28, 711, 400)" opacity="0.14"></path><path d="M644.59 376.25Q655.59 373.75 666.59 369.36 677.59 363.5 688.59 356.72 699.59 349.63 710.59 342.9 728.83 340.67 741.07 355.41 747.28 366.65 754.24 377.89 761.43 389.13 768.33 400.37 774.44 411.61 779.33 422.85 767.16 427.71 754.99 434.32 742.81 442.05 730.64 450.2 718.47 458.01 706.3 464.74 694.12 469.78 681.95 472.66 678.05 460.61 673.16 448.56 667.64 436.51 661.89 424.46 656.33 412.4 651.37 400.35 647.35 388.3 644.59 376.25" stroke-dasharray="1 6" transform="rotate(97.52000000000001, 711, 400)" opacity="0.44"></path><path d="M663.4 388.45Q678.24 381.39 693.07 372.3 707.9 362.66 722.74 354.07 730.02 369.2 738.85 384.34 748.07 399.47 756.52 414.61 740.52 424.05 724.52 434.62 708.51 444.6 692.51 452.35 685.23 436.37 677.28 420.4 669.68 404.43 663.4 388.45" stroke-dasharray="6 6" transform="rotate(101.75999999999999, 711, 400)" opacity="0.48"></path></g></svg>