<svg xmlns="http://www.w3.org/2000/svg" width="123.593" height="112.867" viewBox="0 0 123.593 112.867">
  <g id="Group_2643" data-name="Group 2643" transform="translate(-1033.704 -1278.349)">
    <g id="icon-2-light" transform="translate(1033.704 1256.133)">
      <path id="Path_2658" data-name="Path 2658" d="M122.14,113.889h-3.91V49.949a11.938,11.938,0,0,0-11.923-11.9H91.443a1.537,1.537,0,0,0-.342-1.61l-7.14-7.213a1.532,1.532,0,0,0-2.067-.1l-5,4.147a29.613,29.613,0,0,0-7.78-3.28l-.628-6.44a1.49,1.49,0,0,0-1.526-1.335H56.721A1.49,1.49,0,0,0,55.2,23.552l-.629,6.465a28.646,28.646,0,0,0-7.79,3.26l-4.991-4.144a1.532,1.532,0,0,0-2.06.092L32.5,36.433a1.537,1.537,0,0,0-.348,1.615H17.288a11.938,11.938,0,0,0-11.925,11.9v63.941H1.453A1.386,1.386,0,0,0,0,115.206c0,.039,0,.079,0,.118v7.966a11.754,11.754,0,0,0,11.713,11.793H111.779a11.753,11.753,0,0,0,11.812-11.694c0-.033,0-.066,0-.1v-7.966a1.386,1.386,0,0,0-1.334-1.436C122.218,113.887,122.179,113.887,122.14,113.889ZM40.9,32.375l4.775,3.958a1.532,1.532,0,0,0,1.823.1,25.678,25.678,0,0,1,8.807-3.7,1.476,1.476,0,0,0,1.2-1.3l.6-6.147H65.57l.6,6.147a1.5,1.5,0,0,0,1.206,1.326,26.549,26.549,0,0,1,8.821,3.7A1.532,1.532,0,0,0,78,36.34l4.768-3.956,5.177,5.228L83.985,42.39a1.532,1.532,0,0,0-.1,1.826A25.679,25.679,0,0,1,87.6,53.008a1.58,1.58,0,0,0,1.39,1.2l6.252.6v7.445l-6.166.6a1.556,1.556,0,0,0-1.367,1.192,26.758,26.758,0,0,1-3.736,8.811,1.532,1.532,0,0,0,.1,1.813l3.954,4.773-5.254,5.242L78,80.726a1.532,1.532,0,0,0-1.823-.1,25.676,25.676,0,0,1-8.807,3.7,1.561,1.561,0,0,0-1.2,1.376l-.6,6.223H58.111l-.6-6.222A1.547,1.547,0,0,0,56.3,84.343a26.612,26.612,0,0,1-8.821-3.72,1.532,1.532,0,0,0-1.806.106L40.9,84.687l-5.253-5.243,3.958-4.772a1.532,1.532,0,0,0,.1-1.827,25.68,25.68,0,0,1-3.716-8.793,1.58,1.58,0,0,0-1.39-1.2l-6.253-.6V54.808l6.252-.6a1.556,1.556,0,0,0,1.368-1.192A26.768,26.768,0,0,1,39.7,44.2a1.532,1.532,0,0,0-.1-1.813l-3.955-4.773Zm-14.2,32.793,6.527.63a28.726,28.726,0,0,0,3.294,7.776L32.4,78.562a1.532,1.532,0,0,0,.1,2.062l7.23,7.214a1.532,1.532,0,0,0,2.061.1l5-4.146a29.614,29.614,0,0,0,7.78,3.28l.629,6.515a1.555,1.555,0,0,0,1.524,1.41H66.96a1.555,1.555,0,0,0,1.525-1.41l.629-6.5A28.692,28.692,0,0,0,76.9,83.8l4.991,4.135a1.532,1.532,0,0,0,2.06-.1l7.229-7.215a1.532,1.532,0,0,0,.1-2.063l-4.142-5a29.746,29.746,0,0,0,3.285-7.77l6.465-.629a1.569,1.569,0,0,0,1.425-1.525V53.417a1.573,1.573,0,0,0-.88-1.324h7.519v52.092H18.641V52.094H26.16a1.573,1.573,0,0,0-.88,1.324V63.643A1.569,1.569,0,0,0,26.706,65.168ZM8.427,49.949a8.87,8.87,0,0,1,8.859-8.835H34.574L36.542,43.5a26.459,26.459,0,0,0-2.591,5.53H17.15a1.552,1.552,0,0,0-1.573,1.515v55.241a1.512,1.512,0,0,0,1.557,1.465h89.309a1.512,1.512,0,0,0,1.572-1.449c0-.005,0-.011,0-.016V50.544a1.553,1.553,0,0,0-1.573-1.515H89.656a25.887,25.887,0,0,0-2.6-5.537l1.963-2.379h17.288a8.87,8.87,0,0,1,8.86,8.835v63.941H76.994a1.488,1.488,0,0,0-1.127.445l-2.1,2.3a8.874,8.874,0,0,1-6.491,2.868H56.32a8.9,8.9,0,0,1-6.491-2.892l-2.1-2.257a1.509,1.509,0,0,0-1.128-.469H8.427Zm112.1,73.343a8.686,8.686,0,0,1-8.644,8.728H11.813A8.686,8.686,0,0,1,3.065,123.4c0-.035,0-.07,0-.105v-6.337H45.927l1.648,1.788a11.924,11.924,0,0,0,8.744,3.83H67.273a11.925,11.925,0,0,0,8.746-3.83l1.648-1.788h42.861Z" transform="translate(0 0)" fill="#3854d3"/>
      <path id="Path_2659" data-name="Path 2659" d="M186.713,125.456a22.026,22.026,0,1,0-22.057-22.026,22.026,22.026,0,0,0,22.057,22.026Zm0-40.988A18.962,18.962,0,1,1,167.72,103.43a18.962,18.962,0,0,1,18.993-18.962Z" transform="translate(-124.91 -44.899)" fill="#3854d3"/>
      <path id="Path_2660" data-name="Path 2660" d="M190.279,147.3l9.063,6.853a1.532,1.532,0,0,0,1.878-2.421l-.03-.023-7.447-5.631,7.447-5.631a1.532,1.532,0,0,0-1.848-2.444l-9.063,6.852a1.532,1.532,0,0,0,0,2.444Z" transform="translate(-143.886 -87.608)" fill="#3854d3"/>
      <path id="Path_2661" data-name="Path 2661" d="M272.457,153.858a1.532,1.532,0,0,0,2.145.3l9.064-6.853a1.532,1.532,0,0,0,0-2.444l-9.064-6.853a1.532,1.532,0,0,0-1.848,2.444l7.448,5.631-7.448,5.631A1.532,1.532,0,0,0,272.457,153.858Z" transform="translate(-206.453 -87.606)" fill="#3854d3"/>
      <path id="Path_2662" data-name="Path 2662" d="M244.541,147.449a1.532,1.532,0,0,0,1.744-1.285h0l3.094-20.442a1.532,1.532,0,1,0-3.03-.46L243.256,145.7a1.532,1.532,0,0,0,1.284,1.745Z" transform="translate(-184.522 -77.183)" fill="#3854d3"/>
    </g>
  </g>
</svg>
