<svg xmlns="http://www.w3.org/2000/svg" width="120.269" height="120.269" viewBox="0 0 120.269 120.269">
  <g id="Group_2642" data-name="Group 2642" transform="translate(-1033.365 -1276.365)">
    <g id="surface1" transform="translate(1033.365 1276.365)">
      <path id="Path_2676" data-name="Path 2676" d="M8.018,330.179h96.215a8.018,8.018,0,0,0,8.018-8.018v-6.013a2,2,0,0,0-2-2h-4.009V282.072h-4.009v32.072H98.22V282.072H94.211v32.072H68.625a5.6,5.6,0,0,0-5.034,3.113,1.607,1.607,0,0,1-1.452.9H50.585a1.6,1.6,0,0,1-1.449-.9,5.6,5.6,0,0,0-5.037-3.113H18.04V264.031a2,2,0,0,1,2-2H56.126v-4.009H20.045a6.014,6.014,0,0,0-6.013,6.013v50.112H10.022V260.022a6.014,6.014,0,0,1,6.013-6.013h40.09V250H16.036A10.035,10.035,0,0,0,6.013,260.022v54.121H2a2,2,0,0,0-2,2v6.013A8.018,8.018,0,0,0,8.018,330.179ZM4.009,318.152H44.1a1.615,1.615,0,0,1,1.452.893,5.6,5.6,0,0,0,5.034,3.116H62.139a5.6,5.6,0,0,0,5.038-3.116,1.6,1.6,0,0,1,1.449-.893h39.617v4.009a4.009,4.009,0,0,1-4.009,4.009H8.018a4.009,4.009,0,0,1-4.009-4.009Z" transform="translate(0 -209.91)" fill="#151030"/>
      <path id="Path_2677" data-name="Path 2677" d="M162.5,452V468.04a2,2,0,0,0,2,2H220.63a2,2,0,0,0,2-2V452a2,2,0,0,0-2-2H164.5A2,2,0,0,0,162.5,452Zm4.009,2h52.117v12.027H166.509Z" transform="translate(-136.442 -377.839)" fill="#151030"/>
      <path id="Path_2678" data-name="Path 2678" d="M212.5,500h4.009v4.009H212.5Z" transform="translate(-178.424 -419.821)" fill="#151030"/>
      <path id="Path_2679" data-name="Path 2679" d="M262.5,500h4.009v4.009H262.5Z" transform="translate(-220.406 -419.821)" fill="#151030"/>
      <path id="Path_2680" data-name="Path 2680" d="M312.5,500h4.009v4.009H312.5Z" transform="translate(-262.388 -419.821)" fill="#151030"/>
      <path id="Path_2681" data-name="Path 2681" d="M362.5,500h4.009v4.009H362.5Z" transform="translate(-304.37 -419.821)" fill="#151030"/>
      <path id="Path_2682" data-name="Path 2682" d="M429.121,30.142V24.054a24.054,24.054,0,0,0-48.108,0v6.088A6.725,6.725,0,0,0,375,36.806V61.414a6.747,6.747,0,0,0,6.741,6.739h46.653a6.748,6.748,0,0,0,6.741-6.739V36.806A6.725,6.725,0,0,0,429.121,30.142Zm-44.1-6.088a20.045,20.045,0,1,1,40.09,0v6.013H421.1V24.054a16.036,16.036,0,1,0-32.072,0v6.013h-4.009Zm8.018,6.013V24.054a12.027,12.027,0,0,1,24.054,0v6.013Zm38.085,31.346a2.733,2.733,0,0,1-2.732,2.73H381.741a2.733,2.733,0,0,1-2.732-2.73V36.806a2.733,2.733,0,0,1,2.732-2.73h46.653a2.733,2.733,0,0,1,2.732,2.73Z" transform="translate(-314.865)" fill="#151030"/>
      <path id="Path_2683" data-name="Path 2683" d="M531.023,262.5a6,6,0,0,0-2,11.658v4.378h4.009v-4.378a6,6,0,0,0-2-11.658Zm0,8.018a2,2,0,1,1,2-2A2,2,0,0,1,531.023,270.518Z" transform="translate(-440.821 -220.406)" fill="#151030"/>
      <path id="Path_2684" data-name="Path 2684" d="M225,200h4.009v4.009H225Z" transform="translate(-188.919 -167.928)" fill="#151030"/>
      <path id="Path_2685" data-name="Path 2685" d="M225,150h4.009v4.009H225Z" transform="translate(-188.919 -125.946)" fill="#151030"/>
      <path id="Path_2686" data-name="Path 2686" d="M225,100h4.009v4.009H225Z" transform="translate(-188.919 -83.964)" fill="#151030"/>
      <path id="Path_2687" data-name="Path 2687" d="M225,50h4.009v4.009H225Z" transform="translate(-188.919 -41.982)" fill="#151030"/>
      <path id="Path_2688" data-name="Path 2688" d="M275,50h4.009v4.009H275Z" transform="translate(-230.901 -41.982)" fill="#151030"/>
      <path id="Path_2689" data-name="Path 2689" d="M325,50h4.009v4.009H325Z" transform="translate(-272.883 -41.982)" fill="#151030"/>
      <path id="Path_2690" data-name="Path 2690" d="M375,50h4.009v4.009H375Z" transform="translate(-314.865 -41.982)" fill="#151030"/>
    </g>
  </g>
</svg>
