<svg xmlns="http://www.w3.org/2000/svg" width="115.382" height="115.382" viewBox="0 0 115.382 115.382">
  <g id="Group_2641" data-name="Group 2641" transform="translate(-1038.309 -1274.809)">
    <g id="icon-25-light" transform="translate(1038.309 1274.809)">
      <path id="Path_2691" data-name="Path 2691" d="M113.459,142.609a1.923,1.923,0,0,0-1.923,1.923,5.769,5.769,0,0,1-5.769,5.769H76.921a1.923,1.923,0,1,1,0-3.846H88.459a1.923,1.923,0,0,0,0-3.846H76.921a1.923,1.923,0,1,1,0-3.846H88.459a1.923,1.923,0,0,0,0-3.846H76.921a1.923,1.923,0,1,1,0-3.846H88.459a1.923,1.923,0,1,0,0-3.846H76.921a1.923,1.923,0,1,1,0-3.846H94.228a1.923,1.923,0,1,0,0-3.846H88.459a1.923,1.923,0,0,1-1.923-1.923v-1.923a1.923,1.923,0,0,1,1.923-1.923h7.692a5.769,5.769,0,0,1,5.769,5.769v1.923a1.923,1.923,0,0,0,1.923,1.923h1.923a5.769,5.769,0,0,1,5.769,5.769,1.923,1.923,0,0,0,3.846,0,9.616,9.616,0,0,0-9.615-9.615,9.616,9.616,0,0,0-9.615-9.615H88.459a5.769,5.769,0,0,0-5.769,5.769v.134a32.692,32.692,0,0,0-50,0v-.134a5.769,5.769,0,0,0-5.769-5.769H19.23a9.616,9.616,0,0,0-9.615,9.615A9.616,9.616,0,0,0,0,129.148a1.923,1.923,0,1,0,3.846,0,5.769,5.769,0,0,1,5.769-5.769h1.923a1.923,1.923,0,0,0,1.923-1.923v-1.923a5.769,5.769,0,0,1,5.769-5.769h7.692a1.923,1.923,0,0,1,1.923,1.923v1.923a1.923,1.923,0,0,1-1.923,1.923H21.153a1.923,1.923,0,1,0,0,3.846H38.461a1.923,1.923,0,0,1,0,3.846H26.922a1.923,1.923,0,1,0,0,3.846H38.461a1.923,1.923,0,1,1,0,3.846H26.922a1.923,1.923,0,0,0,0,3.846H38.461a1.923,1.923,0,1,1,0,3.846H26.922a1.923,1.923,0,0,0,0,3.846H38.461a1.923,1.923,0,1,1,0,3.846H9.615a5.769,5.769,0,0,1-5.769-5.769,1.923,1.923,0,1,0-3.846,0,9.616,9.616,0,0,0,9.615,9.615H29.98a32.692,32.692,0,0,0,55.422,0h20.365a9.616,9.616,0,0,0,9.615-9.615A1.923,1.923,0,0,0,113.459,142.609ZM57.691,165.686a28.847,28.847,0,0,1-23.076-11.538h3.846a5.76,5.76,0,0,0,4.288-9.615,5.769,5.769,0,0,0,0-7.692,5.769,5.769,0,0,0,0-7.692,5.76,5.76,0,0,0-4.288-9.615H34.615a28.845,28.845,0,0,1,46.153,0H76.921a5.76,5.76,0,0,0-4.288,9.615,5.769,5.769,0,0,0,0,7.692,5.769,5.769,0,0,0,0,7.692,5.76,5.76,0,0,0,4.288,9.615h3.846A28.847,28.847,0,0,1,57.691,165.686Z" transform="translate(0 -79.15)" fill="#3854d3"/>
      <path id="Path_2692" data-name="Path 2692" d="M218.731,183.692a2.9,2.9,0,0,1,2.866,2.885,1.923,1.923,0,1,0,3.846,0,6.75,6.75,0,0,0-4.789-6.442v-2.211a1.923,1.923,0,0,0-3.846,0v2.211a6.731,6.731,0,0,0,1.923,13.173,2.885,2.885,0,1,1-2.885,2.885,1.923,1.923,0,1,0-3.846,0,6.75,6.75,0,0,0,4.808,6.442v2.211a1.923,1.923,0,0,0,3.846,0v-2.211a6.731,6.731,0,0,0-1.923-13.173,2.885,2.885,0,1,1,0-5.769Z" transform="translate(-161.04 -133.693)" fill="#3854d3"/>
      <path id="Path_2693" data-name="Path 2693" d="M233.923,440A1.923,1.923,0,0,0,232,441.923v5.769a1.923,1.923,0,1,0,3.846,0v-5.769A1.923,1.923,0,0,0,233.923,440Z" transform="translate(-176.232 -334.233)" fill="#3854d3"/>
      <path id="Path_2694" data-name="Path 2694" d="M233.923,392A1.923,1.923,0,0,0,232,393.923v3.846a1.923,1.923,0,1,0,3.846,0v-3.846A1.923,1.923,0,0,0,233.923,392Z" transform="translate(-176.232 -297.772)" fill="#3854d3"/>
      <path id="Path_2695" data-name="Path 2695" d="M233.923,9.615a1.923,1.923,0,0,0,1.923-1.923V1.923a1.923,1.923,0,1,0-3.846,0V7.692A1.923,1.923,0,0,0,233.923,9.615Z" transform="translate(-176.232)" fill="#3854d3"/>
      <path id="Path_2696" data-name="Path 2696" d="M233.923,63.692a1.923,1.923,0,0,0,1.923-1.923V57.923a1.923,1.923,0,1,0-3.846,0v3.846A1.923,1.923,0,0,0,233.923,63.692Z" transform="translate(-176.232 -42.539)" fill="#3854d3"/>
      <path id="Path_2697" data-name="Path 2697" d="M208.259,315.386a21.288,21.288,0,0,1-21.153,0,1.923,1.923,0,0,0-1.923,3.328,24.77,24.77,0,0,0,25,0,1.923,1.923,0,0,0-1.923-3.328Z" transform="translate(-139.991 -239.408)" fill="#3854d3"/>
      <path id="Path_2698" data-name="Path 2698" d="M187.105,142.926a21.288,21.288,0,0,1,21.153,0,1.922,1.922,0,0,0,1.923-3.328,25.215,25.215,0,0,0-25,0,1.923,1.923,0,0,0,1.923,3.328Z" transform="translate(-139.991 -103.522)" fill="#3854d3"/>
      <path id="Path_2699" data-name="Path 2699" d="M289.939,21.167h7.692v5.769a1.923,1.923,0,1,0,3.846,0V19.244a1.923,1.923,0,0,0-1.923-1.923h-4.6L309.17,4.533l14.211,12.788h-4.6a1.923,1.923,0,0,0-1.923,1.923v7.692a1.923,1.923,0,1,0,3.846,0V21.167H328.4a1.923,1.923,0,0,0,1.288-3.347L310.458.514a1.924,1.924,0,0,0-2.577,0l-19.23,17.307a1.923,1.923,0,0,0,1.288,3.347Z" transform="translate(-218.787 -0.014)" fill="#3854d3"/>
      <path id="Path_2700" data-name="Path 2700" d="M40.4,343.384H32.709v-5.769a1.923,1.923,0,1,0-3.846,0v7.692a1.923,1.923,0,0,0,1.923,1.923h4.6L21.171,360.018,6.959,347.23h4.6a1.923,1.923,0,0,0,1.923-1.923V329.923a1.923,1.923,0,1,0-3.846,0v13.461H1.94a1.923,1.923,0,0,0-1.288,3.347l19.23,17.307a1.924,1.924,0,0,0,2.577,0l19.23-17.307a1.923,1.923,0,0,0-1.288-3.347Z" transform="translate(-0.017 -249.156)" fill="#3854d3"/>
    </g>
  </g>
</svg>
