<svg xmlns="http://www.w3.org/2000/svg" width="124.911" height="124.911" viewBox="0 0 124.911 124.911">
  <g id="Group_2644" data-name="Group 2644" transform="translate(-1031.044 -1269.349)">
    <g id="icon-24-light" transform="translate(1023.044 1261.349)">
      <path id="Path_2663" data-name="Path 2663" d="M120.823,75.553V36.045A14.1,14.1,0,1,0,104.705,22.1H8v80.588H68.544a32.214,32.214,0,1,0,52.279-27.138Zm-2.015-63.523A10.073,10.073,0,1,1,108.735,22.1,10.085,10.085,0,0,1,118.808,12.029ZM12.029,26.132H105.3a14.093,14.093,0,0,0,2.23,4.4L95.208,42.856a5.834,5.834,0,0,0-5.18,0l-4.06-4.06a5.988,5.988,0,0,0,.6-2.591,6.044,6.044,0,0,0-12.088,0,5.945,5.945,0,0,0,.606,2.589l-10.1,10.1a5.988,5.988,0,0,0-2.591-.6,6.044,6.044,0,1,0,6.044,6.044,5.945,5.945,0,0,0-.606-2.589l10.1-10.1a5.842,5.842,0,0,0,5.18,0l4.06,4.06a5.988,5.988,0,0,0-.6,2.591,6.044,6.044,0,1,0,12.088,0,5.945,5.945,0,0,0-.606-2.589l12.324-12.322a14.017,14.017,0,0,0,6.415,2.663V72.8A32.039,32.039,0,0,0,76.5,79.427V70.456H64.411V94.632h4.618a32.319,32.319,0,0,0-.486,4.029H12.029ZM92.617,46.279A2.015,2.015,0,1,1,90.6,48.294,2.017,2.017,0,0,1,92.617,46.279Zm-14.1-10.073a2.015,2.015,0,1,1,2.015,2.015A2.017,2.017,0,0,1,78.514,36.206Zm-14.1,18.132A2.015,2.015,0,1,1,62.4,52.323,2.017,2.017,0,0,1,64.411,54.338Zm36.264,62.456a16.118,16.118,0,1,1,16.118-16.118A16.136,16.136,0,0,1,100.676,116.793ZM72.47,85.1a31.992,31.992,0,0,0-2.4,5.5H68.441V74.485H72.47ZM98.661,72.573v8.059a20.105,20.105,0,0,0-16.337,28.313l-6.989,4.035A28.109,28.109,0,0,1,98.661,72.573Zm2.015,56.309a28.192,28.192,0,0,1-23.346-12.4l7.017-4.052a20.081,20.081,0,0,0,32.658,0l7.017,4.052A28.192,28.192,0,0,1,100.676,128.882Zm25.341-15.9-6.989-4.035a20.105,20.105,0,0,0-16.337-28.313V72.573a28.109,28.109,0,0,1,23.326,40.407Z" fill="#151030"/>
      <path id="Path_2664" data-name="Path 2664" d="M340.088,328a12.088,12.088,0,1,0,12.088,12.088A12.1,12.1,0,0,0,340.088,328Zm0,20.147a8.059,8.059,0,1,1,8.059-8.059A8.067,8.067,0,0,1,340.088,348.147Z" transform="translate(-239.412 -239.412)" fill="#151030"/>
      <path id="Path_2665" data-name="Path 2665" d="M40,96h4.029v4.029H40Z" transform="translate(-23.941 -65.838)" fill="#151030"/>
      <path id="Path_2666" data-name="Path 2666" d="M72,96h28.206v4.029H72Z" transform="translate(-47.882 -65.838)" fill="#151030"/>
      <path id="Path_2667" data-name="Path 2667" d="M40,128h4.029v4.029H40Z" transform="translate(-23.941 -89.78)" fill="#151030"/>
      <path id="Path_2668" data-name="Path 2668" d="M72,128h28.206v4.029H72Z" transform="translate(-47.882 -89.78)" fill="#151030"/>
      <path id="Path_2669" data-name="Path 2669" d="M40,160h4.029v4.029H40Z" transform="translate(-23.941 -113.721)" fill="#151030"/>
      <path id="Path_2670" data-name="Path 2670" d="M72,160h28.206v4.029H72Z" transform="translate(-47.882 -113.721)" fill="#151030"/>
      <path id="Path_2671" data-name="Path 2671" d="M40,192h4.029v4.029H40Z" transform="translate(-23.941 -137.662)" fill="#151030"/>
      <path id="Path_2672" data-name="Path 2672" d="M72,192h28.206v4.029H72Z" transform="translate(-47.882 -137.662)" fill="#151030"/>
      <path id="Path_2673" data-name="Path 2673" d="M40,292.147H52.088V272H40Zm4.029-16.118h4.029v12.088H44.029Z" transform="translate(-23.941 -197.515)" fill="#151030"/>
      <path id="Path_2674" data-name="Path 2674" d="M104,304.118h12.088V288H104Zm4.029-12.088h4.029v8.059h-4.029Z" transform="translate(-71.824 -209.486)" fill="#151030"/>
      <path id="Path_2675" data-name="Path 2675" d="M168,256.235h12.088V224H168Zm4.029-28.206h4.029v24.176h-4.029Z" transform="translate(-119.706 -161.603)" fill="#151030"/>
    </g>
  </g>
</svg>
